<svg xmlns="http://www.w3.org/2000/svg" version="1.1" xmlns:xlink="http://www.w3.org/1999/xlink" xmlns:svgjs="http://svgjs.dev/svgjs" width="1000" height="171" viewBox="0 0 1000 171"><g transform="matrix(1,0,0,1,-0.6060494676495978,-0.2850332676827918)"><svg viewBox="0 0 396 68" data-background-color="#ffffff" preserveAspectRatio="xMidYMid meet" height="171" width="1000" xmlns="http://www.w3.org/2000/svg" xmlns:xlink="http://www.w3.org/1999/xlink"><defs></defs><g id="tight-bounds" transform="matrix(1,0,0,1,0.23999642441140168,0.11334656258731002)"><svg viewBox="0 0 395.52 67.77330687482537" height="67.77330687482537" width="395.52"><g><svg viewBox="0 0 533.6285693574264 91.43854365957446" height="67.77330687482537" width="395.52"><g><rect width="7.557400731043403" height="91.43854365957446" x="110.76739707914894" y="0" fill="#ed1703" opacity="1" stroke-width="0" stroke="transparent" fill-opacity="1" class="rect-o-0" data-fill-palette-color="primary" rx="1%" id="o-0" data-palette-color="#ed1703"></rect></g><g transform="matrix(1,0,0,1,138.10856935742638,0.22745906382978376)"><svg viewBox="0 0 395.52 90.9836255319149" height="90.9836255319149" width="395.52"><g><svg viewBox="0 0 395.52 90.9836255319149" height="90.9836255319149" width="395.52"><g><svg viewBox="0 0 395.52 90.9836255319149" height="90.9836255319149" width="395.52"><g transform="matrix(1,0,0,1,0,0)"><svg width="395.52" viewBox="3.739999771118164 -35.01000213623047 165.22999572753906 35.010005950927734" height="90.9836255319149" data-palette-color="#ed1703"><svg></svg><g class="undefined-text-0" data-fill-palette-color="primary" id="text-0"><path d="M22.39-17.5l17.99 17.5h-9.01l-14.28-14.31h-4.47v-6.39h4.47l14.28-14.31h9.01zM10.08-35.01v35.01h-6.34v-35.01zM79.3-20.36v5.71c0 2.133-0.37 4.097-1.11 5.89-0.74 1.787-1.763 3.327-3.07 4.62-1.3 1.293-2.847 2.307-4.64 3.04-1.787 0.733-3.73 1.1-5.83 1.1v0h-17.14c-0.453 0-0.877-0.08-1.27-0.24-0.393-0.167-0.73-0.393-1.01-0.68-0.287-0.28-0.51-0.617-0.67-1.01-0.167-0.387-0.25-0.81-0.25-1.27v0-28.61c0-0.44 0.083-0.857 0.25-1.25 0.16-0.387 0.383-0.727 0.67-1.02 0.28-0.293 0.617-0.523 1.01-0.69 0.393-0.16 0.817-0.24 1.27-0.24v0h17.14c2.1 0 4.043 0.367 5.83 1.1 1.793 0.733 3.34 1.747 4.64 3.04 1.307 1.293 2.33 2.84 3.07 4.64 0.74 1.793 1.11 3.75 1.11 5.87zM72.95-14.65v-5.71c0-1.24-0.2-2.37-0.6-3.39-0.4-1.027-0.967-1.903-1.7-2.63-0.727-0.727-1.6-1.287-2.62-1.68-1.02-0.4-2.147-0.6-3.38-0.6v0h-13.99v22.31h13.99c1.233 0 2.36-0.2 3.38-0.6 1.02-0.393 1.893-0.953 2.62-1.68 0.733-0.727 1.3-1.597 1.7-2.61 0.4-1.02 0.6-2.157 0.6-3.41zM89.65-3.2v0c0 0.44-0.087 0.85-0.26 1.23-0.167 0.387-0.393 0.723-0.68 1.01-0.287 0.28-0.62 0.503-1 0.67-0.387 0.16-0.79 0.24-1.21 0.24v0c-0.44 0-0.85-0.08-1.23-0.24-0.387-0.167-0.72-0.39-1-0.67-0.287-0.287-0.513-0.623-0.68-1.01-0.16-0.38-0.24-0.79-0.24-1.23v0c0-0.42 0.08-0.823 0.24-1.21 0.167-0.38 0.393-0.713 0.68-1 0.28-0.28 0.613-0.507 1-0.68 0.38-0.173 0.79-0.26 1.23-0.26v0c0.42 0 0.823 0.087 1.21 0.26 0.38 0.173 0.713 0.4 1 0.68 0.287 0.287 0.513 0.62 0.68 1 0.173 0.387 0.26 0.79 0.26 1.21zM130.2-23.24v2.88c0 1.447-0.18 2.74-0.54 3.88-0.353 1.14-0.837 2.147-1.45 3.02-0.613 0.867-1.317 1.61-2.11 2.23-0.8 0.62-1.633 1.123-2.5 1.51-0.873 0.393-1.753 0.68-2.64 0.86-0.887 0.18-1.72 0.27-2.5 0.27v0h-14.36v-6.35h14.36c0.813-0.067 1.55-0.233 2.21-0.5 0.66-0.267 1.223-0.63 1.69-1.09 0.473-0.453 0.84-1.003 1.1-1.65 0.26-0.64 0.39-1.367 0.39-2.18v0-2.88c-0.08-0.8-0.25-1.533-0.51-2.2-0.26-0.667-0.613-1.237-1.06-1.71-0.447-0.473-0.99-0.843-1.63-1.11-0.633-0.267-1.363-0.4-2.19-0.4v0h-14.31c-0.847 0-1.49 0.22-1.93 0.66-0.44 0.44-0.66 1.073-0.66 1.9v0 26.1h-6.35v-26.1c0-1.627 0.3-3.01 0.9-4.15 0.593-1.14 1.333-2.06 2.22-2.76 0.887-0.7 1.85-1.207 2.89-1.52 1.04-0.32 2-0.48 2.88-0.48v0h14.36c1.433 0 2.717 0.183 3.85 0.55 1.14 0.367 2.147 0.853 3.02 1.46 0.873 0.613 1.613 1.32 2.22 2.12 0.613 0.793 1.117 1.627 1.51 2.5 0.4 0.867 0.69 1.747 0.87 2.64 0.18 0.887 0.27 1.72 0.27 2.5zM168.97-35.01v11.72c0 1.447-0.183 2.74-0.55 3.88-0.367 1.14-0.85 2.147-1.45 3.02-0.607 0.867-1.31 1.61-2.11 2.23-0.807 0.62-1.643 1.13-2.51 1.53-0.86 0.393-1.733 0.68-2.62 0.86-0.887 0.18-1.72 0.27-2.5 0.27v0h-2.57v11.5h-6.39v-11.5h-2.54c-0.78 0-1.613-0.09-2.5-0.27-0.893-0.18-1.773-0.467-2.64-0.86-0.873-0.4-1.707-0.91-2.5-1.53-0.8-0.62-1.507-1.363-2.12-2.23-0.607-0.873-1.093-1.883-1.46-3.03-0.367-1.147-0.55-2.437-0.55-3.87v0-11.72h6.35v11.72c0 0.827 0.13 1.57 0.39 2.23 0.26 0.66 0.627 1.227 1.1 1.7 0.467 0.473 1.04 0.837 1.72 1.09 0.673 0.247 1.427 0.37 2.26 0.37v0h11.45c0.6-0.093 1.217-0.217 1.85-0.37 0.633-0.16 1.213-0.427 1.74-0.8 0.52-0.373 0.95-0.893 1.29-1.56 0.34-0.667 0.51-1.553 0.51-2.66v0-11.72z" data-fill-palette-color="primary" fill="#ed1703" opacity="1"></path></g></svg></g></svg></g></svg></g></svg></g><g transform="matrix(1,0,0,1,0,0.22745906382978376)"><svg viewBox="0 0 90.9836255319149 90.9836255319149" height="90.9836255319149" width="90.9836255319149"><g><svg xmlns="http://www.w3.org/2000/svg" xmlns:xlink="http://www.w3.org/1999/xlink" version="1.1" x="0" y="0" viewBox="3.8000011444091797 3.59999942779541 92.39999389648438 92.39999389648438" style="enable-background:new 0 0 100 100;" xml:space="preserve" height="90.9836255319149" width="90.9836255319149" class="icon-icon-0" data-fill-palette-color="accent" id="icon-0"><g fill="#ed1703" data-fill-palette-color="accent"><path d="M9.5 16.9V37L31.5 59c-0.8 1.1-1.3 2.5-1.3 3.9 0 3.7 3 6.7 6.7 6.7s6.7-3 6.7-6.7c0-3.7-3-6.7-6.7-6.7-1.5 0-2.8 0.5-3.9 1.3L11.5 36.2V16.9c3.2-0.5 5.7-3.2 5.7-6.6 0-3.7-3-6.7-6.7-6.7s-6.7 3-6.7 6.7C3.9 13.7 6.3 16.4 9.5 16.9zM41.5 62.9c0 2.6-2.1 4.7-4.7 4.7-2.6 0-4.7-2.1-4.7-4.7s2.1-4.7 4.7-4.7C39.4 58.3 41.5 60.4 41.5 62.9zM10.5 5.7c2.6 0 4.7 2.1 4.7 4.7 0 2.6-2.1 4.7-4.7 4.7-2.6 0-4.7-2.1-4.7-4.7C5.9 7.8 8 5.7 10.5 5.7z" fill="#ed1703" data-fill-palette-color="accent"></path><path d="M90.4 30.1V16.9c3.2-0.5 5.7-3.2 5.7-6.6 0-3.7-3-6.7-6.7-6.7-3.3 0-6.1 2.5-6.6 5.7H43.4c-0.5-3.2-3.2-5.7-6.6-5.7-3.7 0-6.7 3-6.7 6.7s3 6.7 6.7 6.7c3.3 0 6.1-2.5 6.6-5.7h39.5c0.4 2.9 2.7 5.1 5.6 5.6v13.2c-3.2 0.5-5.7 3.2-5.7 6.6 0 1.5 0.5 2.8 1.3 3.9l-17 17c-1.1-0.8-2.5-1.3-3.9-1.3-3.7 0-6.7 3-6.7 6.7 0 3.7 3 6.7 6.7 6.7s6.7-3 6.7-6.7c0-1.5-0.5-2.8-1.3-3.9l17-17c1.1 0.8 2.5 1.3 3.9 1.3 3.7 0 6.7-3 6.7-6.7C96.1 33.3 93.6 30.5 90.4 30.1zM36.8 15c-2.6 0-4.7-2.1-4.7-4.7 0-2.6 2.1-4.7 4.7-4.7 2.6 0 4.7 2.1 4.7 4.7C41.5 12.9 39.4 15 36.8 15zM84.8 10.3c0-2.6 2.1-4.7 4.7-4.7s4.7 2.1 4.7 4.7c0 2.6-2.1 4.7-4.7 4.7S84.8 12.9 84.8 10.3zM63.1 67.6c-2.6 0-4.7-2.1-4.7-4.7s2.1-4.7 4.7-4.7 4.7 2.1 4.7 4.7S65.7 67.6 63.1 67.6zM89.4 41.3c-2.6 0-4.7-2.1-4.7-4.7 0-2.6 2.1-4.7 4.7-4.7s4.7 2.1 4.7 4.7C94.1 39.2 92 41.3 89.4 41.3z" fill="#ed1703" data-fill-palette-color="accent"></path><path d="M96.1 62.9c0-3.7-3-6.7-6.7-6.7-3.7 0-6.7 3-6.7 6.7 0 3.3 2.5 6.1 5.7 6.6v13.2c-2.9 0.4-5.1 2.7-5.6 5.6H69.7c-0.5-3.2-3.2-5.7-6.6-5.7-3.7 0-6.7 3-6.7 6.7s3 6.7 6.7 6.7c3.3 0 6.1-2.5 6.6-5.7h13.2c0.5 3.2 3.2 5.7 6.6 5.7 3.7 0 6.7-3 6.7-6.7 0-3.3-2.5-6.1-5.7-6.6V69.5C93.6 69 96.1 66.2 96.1 62.9zM63.1 93.9c-2.6 0-4.7-2.1-4.7-4.7s2.1-4.7 4.7-4.7 4.7 2.1 4.7 4.7S65.7 93.9 63.1 93.9zM84.8 62.9c0-2.6 2.1-4.7 4.7-4.7s4.7 2.1 4.7 4.7-2.1 4.7-4.7 4.7S84.8 65.5 84.8 62.9zM94.1 89.2c0 2.6-2.1 4.7-4.7 4.7s-4.7-2.1-4.7-4.7 2.1-4.7 4.7-4.7S94.1 86.7 94.1 89.2z" fill="#ed1703" data-fill-palette-color="accent"></path><path d="M56.6 37.6c0.5 3.2 3.2 5.7 6.6 5.7 3.7 0 6.7-3 6.7-6.7s-3-6.7-6.7-6.7c-3.3 0-6.1 2.5-6.6 5.7H43.4c-0.5-3.2-3.2-5.7-6.6-5.7-3.7 0-6.7 3-6.7 6.7s3 6.7 6.7 6.7c3.3 0 6.1-2.5 6.6-5.7H49v25.3 12.7L36.4 88.2H17.1c-0.4-2.9-2.7-5.1-5.6-5.6V69.5c3.2-0.5 5.7-3.2 5.7-6.6 0-3.7-3-6.7-6.7-6.7s-6.7 3-6.7 6.7c0 3.3 2.5 6.1 5.7 6.6v13.2c-3.2 0.5-5.7 3.2-5.7 6.6 0 3.7 3 6.7 6.7 6.7 3.3 0 6.1-2.5 6.6-5.7h20.1L51 76.5v-0.4V62.9 37.6H56.6zM63.1 32c2.6 0 4.7 2.1 4.7 4.7 0 2.6-2.1 4.7-4.7 4.7s-4.7-2.1-4.7-4.7C58.5 34.1 60.6 32 63.1 32zM36.8 41.3c-2.6 0-4.7-2.1-4.7-4.7 0-2.6 2.1-4.7 4.7-4.7 2.6 0 4.7 2.1 4.7 4.7C41.5 39.2 39.4 41.3 36.8 41.3zM5.9 62.9c0-2.6 2.1-4.7 4.7-4.7 2.6 0 4.7 2.1 4.7 4.7s-2.1 4.7-4.7 4.7C8 67.6 5.9 65.5 5.9 62.9zM10.5 93.9c-2.6 0-4.7-2.1-4.7-4.7s2.1-4.7 4.7-4.7c2.6 0 4.7 2.1 4.7 4.7S13.1 93.9 10.5 93.9z" fill="#ed1703" data-fill-palette-color="accent"></path></g></svg></g></svg></g></svg></g></svg><rect width="395.52" height="67.77330687482537" fill="none" stroke="none" visibility="hidden"></rect></g></svg></g></svg>